<svg xmlns="http://www.w3.org/2000/svg" xmlns:xlink="http://www.w3.org/1999/xlink" width="17" height="17" viewBox="0 0 17 17" version="1.1">
    <g id="Picto/Compte" stroke="none" stroke-width="1" fill="none" fill-rule="evenodd">
        <path d="M1.0166,16 C1.2746,12.097 4.5326,9 8.4996,9 C12.4676,9 15.7246,12.097 15.9836,16 L1.0166,16 Z M4.9996,4.5 C4.9996,2.57 6.5706,1 8.4996,1 C10.4296,1 11.9996,2.57 11.9996,4.5 C11.9996,6.43 10.4296,8 8.4996,8 C6.5706,8 4.9996,6.43 4.9996,4.5 L4.9996,4.5 Z M10.8276,8.332 C12.1236,7.541 12.9996,6.127 12.9996,4.5 C12.9996,2.019 10.9816,0 8.4996,0 C6.0186,0 3.9996,2.019 3.9996,4.5 C3.9996,6.127 4.8756,7.541 6.1726,8.332 C2.6146,9.348 -0.0004,12.621 -0.0004,16.5 L-0.0004,17 L16.9996,17 L16.9996,16.5 C16.9996,12.621 14.3856,9.348 10.8276,8.332 L10.8276,8.332 Z" id="Fill-1" fill="#000000"/>
    </g>
</svg>