<svg xmlns:svgjs="http://svgjs.com/svgjs" xmlns="http://www.w3.org/2000/svg" xmlns:xlink="http://www.w3.org/1999/xlink" version="1.1" id="Calque_1" x="0px" y="0px" viewBox="0 0 360 360" style="enable-background:new 0 0 360 360;" xml:space="preserve" width="360"  height="360" >
		<path d="M100,356c-4.3,0-8.3-1.6-11.4-4.6c-6.3-6.2-6.3-16.4-0.1-22.6c0,0,0.1-0.1,0.1-0.1L237.4,180L88.6,31.4    c-6.3-6.3-6.3-16.4,0-22.7s16.4-6.3,22.7,0l160,160c6.3,6.2,6.3,16.4,0.1,22.6c0,0-0.1,0.1-0.1,0.1l-160,160    C108.3,354.4,104.3,356,100,356L100,356z"/>
</svg>