<svg xmlns="http://www.w3.org/2000/svg" xmlns:xlink="http://www.w3.org/1999/xlink" width="15" height="18" viewBox="0 0 15 18" version="1.1">
	<g id="Picto/Panier" stroke="none" stroke-width="1" fill="none" fill-rule="evenodd">
		<path d="M1,17 L14,17 L14,4 L1,4 L1,17 Z M7.5,1 C8.707,1 9.717,1.86 9.949,3 L5.051,3 C5.283,1.86 6.293,1 7.5,1 L7.5,1 Z M10.949,3 C10.704,1.309 9.258,0 7.5,0 C5.742,0 4.296,1.309 4.051,3 L1,3 L0,3 L0,4 L0,17 L0,18 L1,18 L14,18 L15,18 L15,17 L15,4 L15,3 L10.949,3 Z" id="Fill-1" fill="#000000"/>
	</g>
</svg>