<svg xmlns="http://www.w3.org/2000/svg" xmlns:xlink="http://www.w3.org/1999/xlink" width="17" height="17" viewBox="0 0 17 17" version="1.1">
	<g id="Picto/Search" stroke="none" stroke-width="1" fill="none" fill-rule="evenodd">
		<path d="M1,7 C1,3.691 3.691,1 7,1 C10.309,1 13,3.691 13,7 C13,10.309 10.309,13 7,13 C3.691,13 1,10.309 1,7 L1,7 Z M16.854,16.146 L12.286,11.579 C13.351,10.352 14,8.753 14,7 C14,3.134 10.866,0 7,0 C3.134,0 0,3.134 0,7 C0,10.866 3.134,14 7,14 C8.753,14 10.352,13.352 11.579,12.286 L16.146,16.854 L16.854,16.146 Z" id="Fill-1" fill="#000000"></path>
	</g>
</svg>